<?xml version="1.0" encoding="UTF-8"?>
<svg version="1.1" xmlns="http://www.w3.org/2000/svg" width="520" height="521">
<path d="M0 0 C171.6 0 343.2 0 520 0 C520 171.93 520 343.86 520 521 C348.4 521 176.8 521 0 521 C0 349.07 0 177.14 0 0 Z " fill="#FEFEFE" transform="translate(0,0)"/>
<path d="M0 0 C18.90354983 15.21153688 32.71245242 43.76336763 35.79296875 67.62890625 C36.73998269 83.04915208 36.71192654 98.77447822 32.57421875 113.76953125 C31.72916167 117.05203187 31.05263261 120.36737876 30.375 123.6875 C29.98441406 125.58048828 29.98441406 125.58048828 29.5859375 127.51171875 C29.0881195 130.47539522 28.6816212 133.01785191 29 136 C30.64488294 137.68816933 32.31337542 139.35353315 34 141 C35.92184708 145.52160597 36.3856393 149.76508132 36.375 154.625 C36.37411377 155.37773193 36.37322754 156.13046387 36.37231445 156.90600586 C36.2241167 164.52577751 35.2452016 172.02255633 34.1875 179.5625 C34.02233887 180.75117676 33.85717773 181.93985352 33.68701172 183.16455078 C30.97838537 201.2432939 30.97838537 201.2432939 25.4375 205.8125 C24.38755859 206.68068359 24.38755859 206.68068359 23.31640625 207.56640625 C20.81201938 209.11633877 18.72786034 209.59164761 15.875 210.25 C12.13061494 211.67047992 11.18689237 212.61329431 9.41796875 216.2734375 C8.05654929 220.33463725 7.02037491 224.48598363 5.93994141 228.62890625 C4.82546729 232.62596042 3.55946594 236.55932531 2.26171875 240.5 C2.01579483 241.2473642 1.76987091 241.99472839 1.51649475 242.76473999 C0.76225057 245.05190947 0.00617512 247.3384683 -0.75 249.625 C-7.878405 267.64050257 -7.878405 267.64050257 -7.1953125 286.1796875 C0.53548191 301.16143391 12.75285746 310.50757618 28 317 C32.77975211 318.45447015 37.60799576 319.49637655 42.5 320.5 C43.8581649 320.79197925 45.21598872 321.08554909 46.57348633 321.38061523 C50.71130302 322.27499966 54.85473663 323.14088 59 324 C75.22671006 327.36827476 91.27079064 330.71777543 107 336 C107.65049316 336.2151123 108.30098633 336.43022461 108.97119141 336.65185547 C116.28960665 339.11181084 122.12642242 341.99971213 128 347 C129.2684375 347.86625 129.2684375 347.86625 130.5625 348.75 C138.46631112 356.04582565 145.64773632 367.94411654 146.12698364 378.90397644 C146.12777924 380.02903091 146.12857483 381.15408539 146.12939453 382.31323242 C146.13254669 383.59103073 146.13569885 384.86882904 146.13894653 386.18534851 C146.13715716 387.57538894 146.13510631 388.96542906 146.1328125 390.35546875 C146.1334862 391.78225216 146.13445678 393.20903546 146.13571167 394.63581848 C146.1371841 397.62074887 146.13504774 400.60564928 146.13037109 403.59057617 C146.12465853 407.42421685 146.1279653 411.25778775 146.13394356 415.0914259 C146.13754822 418.0346988 146.1364113 420.97795501 146.13381577 423.92122841 C146.13314703 425.335483 146.13397305 426.74973909 146.13629532 428.16399193 C146.13882192 430.1343114 146.13429128 432.10463617 146.12939453 434.07495117 C146.12820114 435.75895271 146.12820114 435.75895271 146.12698364 437.47697449 C146 440 146 440 145 441 C142.60788575 441.09966874 140.24460603 441.13363158 137.85192871 441.12584114 C136.7109951 441.1280213 136.7109951 441.1280213 135.54701233 441.13024551 C132.96556688 441.13393208 130.38417951 441.13040688 127.80273438 441.12698364 C125.94642354 441.12813441 124.09011292 441.12972164 122.2338028 441.13171089 C117.10727842 441.13591026 111.98077251 441.1338108 106.85424805 441.13072467 C101.3354479 441.12847325 95.81665106 441.13194889 90.29785156 441.13470459 C79.47644299 441.13916406 68.65504132 441.13818504 57.83363247 441.13529195 C49.04314047 441.13303861 40.25265041 441.13272509 31.4621582 441.13381577 C30.21366986 441.133969 28.96518151 441.13412223 27.67886019 441.13428011 C25.14301745 441.13459982 22.60717471 441.13492403 20.07133198 441.1352527 C-3.0585863 441.13802652 -26.18850094 441.13514418 -49.31841838 441.1299101 C-70.45186428 441.12516418 -91.58530415 441.1255888 -112.71875 441.13037109 C-136.43975139 441.13572093 -160.16074986 441.13783331 -183.88175201 441.13475883 C-186.40855408 441.13444026 -188.93535614 441.13412589 -191.4621582 441.13381577 C-192.70557212 441.13366149 -193.94898604 441.13350721 -195.23007917 441.13334826 C-204.01561024 441.13248284 -212.80113918 441.13394652 -221.58666992 441.13629532 C-232.2852553 441.13909255 -242.98383334 441.1383567 -253.68241787 441.13301457 C-259.14672182 441.13037651 -264.61101351 441.12937426 -270.07531738 441.13266373 C-275.06901301 441.13562455 -280.06268491 441.13403749 -285.05637836 441.12868617 C-286.87129346 441.12756107 -288.68621053 441.12815522 -290.50112438 441.13056196 C-292.95142177 441.1335642 -295.40163582 441.1305233 -297.85192871 441.12584114 C-298.5709713 441.12818231 -299.29001389 441.13052347 -300.03084564 441.13293558 C-304.88584966 441.11415034 -304.88584966 441.11415034 -306 440 C-306.10438522 438.14553343 -306.13854827 436.28707746 -306.14526367 434.4296875 C-306.15483345 432.64147583 -306.15483345 432.64147583 -306.16459656 430.81713867 C-306.16570938 429.51623291 -306.1668222 428.21532715 -306.16796875 426.875 C-306.17118211 425.53035445 -306.17454624 424.18570926 -306.17805481 422.84106445 C-306.18405698 420.01301261 -306.18589392 417.18499136 -306.18530273 414.35693359 C-306.18520177 410.75374249 -306.19877995 407.15075139 -306.21607494 403.54760742 C-306.22726953 400.76441573 -306.22921957 397.98127097 -306.22869301 395.19805908 C-306.23043106 393.23016903 -306.24123661 391.26229363 -306.25224304 389.29443359 C-306.2166633 375.21627092 -303.30276653 364.32467727 -293.5 353.8125 C-271.45746591 333.0220082 -236.40417396 327.98371949 -207.86010742 322.28393555 C-193.49975705 319.37422212 -181.12753088 315.59368082 -169 307 C-167.948125 306.2575 -166.89625 305.515 -165.8125 304.75 C-158.61400035 297.711467 -152.19715163 289.26501287 -151.5625 278.9375 C-152.00143658 268.20184287 -156.33409348 257.80726948 -160.22753906 247.92822266 C-162.11059718 242.9730671 -163.50572243 238.06799906 -164.65625 232.890625 C-164.93428467 231.66827148 -165.21231934 230.44591797 -165.4987793 229.18652344 C-166.03314911 226.76558611 -166.53069851 224.33616937 -166.98754883 221.89941406 C-167.71451082 218.63789612 -168.38910253 215.93024948 -170 213 C-173.24477963 211.0851978 -176.32362427 210.58910962 -180 210 C-185.55063442 207.17231831 -188.39472209 203.53840743 -191 198 C-192.29637365 193.51121084 -193.07801421 188.98555249 -193.8125 184.375 C-194.02189209 183.09915039 -194.23128418 181.82330078 -194.44702148 180.50878906 C-195.66279271 172.58969963 -196.48631785 164.76380327 -196.5625 156.75 C-196.57708252 155.88938965 -196.59166504 155.0287793 -196.60668945 154.14208984 C-196.51120513 148.28687565 -195.35457487 142.90400323 -192 138 C-189.86157227 136.74902344 -189.86157227 136.74902344 -188 136 C-188.14099121 135.37657715 -188.28198242 134.7531543 -188.42724609 134.11083984 C-189.08211647 131.20012605 -189.72856306 128.28759791 -190.375 125.375 C-190.59671875 124.3953125 -190.8184375 123.415625 -191.046875 122.40625 C-193.91293475 109.42468523 -195.34563528 96.86300228 -195.3125 83.5625 C-195.32861328 82.27279297 -195.34472656 80.98308594 -195.36132812 79.65429688 C-195.37542007 51.51268065 -184.90613303 25.78723442 -165.6015625 5.4765625 C-120.08163388 -37.62370214 -48.7318059 -36.63130022 0 0 Z " fill="#FEFEFE" transform="translate(340,53)"/>
<path d="M0 0 C18.90354983 15.21153688 32.71245242 43.76336763 35.79296875 67.62890625 C36.73998269 83.04915208 36.71192654 98.77447822 32.57421875 113.76953125 C31.72916167 117.05203187 31.05263261 120.36737876 30.375 123.6875 C29.98441406 125.58048828 29.98441406 125.58048828 29.5859375 127.51171875 C29.0881195 130.47539522 28.6816212 133.01785191 29 136 C30.64488294 137.68816933 32.31337542 139.35353315 34 141 C35.92184708 145.52160597 36.3856393 149.76508132 36.375 154.625 C36.37411377 155.37773193 36.37322754 156.13046387 36.37231445 156.90600586 C36.2241167 164.52577751 35.2452016 172.02255633 34.1875 179.5625 C34.02233887 180.75117676 33.85717773 181.93985352 33.68701172 183.16455078 C30.97838537 201.2432939 30.97838537 201.2432939 25.4375 205.8125 C24.38755859 206.68068359 24.38755859 206.68068359 23.31640625 207.56640625 C20.81201938 209.11633877 18.72786034 209.59164761 15.875 210.25 C12.13061494 211.67047992 11.18689237 212.61329431 9.41796875 216.2734375 C8.05654929 220.33463725 7.02037491 224.48598363 5.93994141 228.62890625 C4.82546729 232.62596042 3.55946594 236.55932531 2.26171875 240.5 C2.01579483 241.2473642 1.76987091 241.99472839 1.51649475 242.76473999 C0.76225057 245.05190947 0.00617512 247.3384683 -0.75 249.625 C-7.878405 267.64050257 -7.878405 267.64050257 -7.1953125 286.1796875 C0.53548191 301.16143391 12.75285746 310.50757618 28 317 C32.77975211 318.45447015 37.60799576 319.49637655 42.5 320.5 C43.8581649 320.79197925 45.21598872 321.08554909 46.57348633 321.38061523 C50.71130302 322.27499966 54.85473663 323.14088 59 324 C75.22671006 327.36827476 91.27079064 330.71777543 107 336 C107.65049316 336.2151123 108.30098633 336.43022461 108.97119141 336.65185547 C116.28960665 339.11181084 122.12642242 341.99971213 128 347 C129.2684375 347.86625 129.2684375 347.86625 130.5625 348.75 C138.46631112 356.04582565 145.64773632 367.94411654 146.12698364 378.90397644 C146.12777924 380.02903091 146.12857483 381.15408539 146.12939453 382.31323242 C146.13254669 383.59103073 146.13569885 384.86882904 146.13894653 386.18534851 C146.13715716 387.57538894 146.13510631 388.96542906 146.1328125 390.35546875 C146.1334862 391.78225216 146.13445678 393.20903546 146.13571167 394.63581848 C146.1371841 397.62074887 146.13504774 400.60564928 146.13037109 403.59057617 C146.12465853 407.42421685 146.1279653 411.25778775 146.13394356 415.0914259 C146.13754822 418.0346988 146.1364113 420.97795501 146.13381577 423.92122841 C146.13314703 425.335483 146.13397305 426.74973909 146.13629532 428.16399193 C146.13882192 430.1343114 146.13429128 432.10463617 146.12939453 434.07495117 C146.12820114 435.75895271 146.12820114 435.75895271 146.12698364 437.47697449 C146 440 146 440 145 441 C142.60788575 441.09966874 140.24460603 441.13363158 137.85192871 441.12584114 C136.7109951 441.1280213 136.7109951 441.1280213 135.54701233 441.13024551 C132.96556688 441.13393208 130.38417951 441.13040688 127.80273438 441.12698364 C125.94642354 441.12813441 124.09011292 441.12972164 122.2338028 441.13171089 C117.10727842 441.13591026 111.98077251 441.1338108 106.85424805 441.13072467 C101.3354479 441.12847325 95.81665106 441.13194889 90.29785156 441.13470459 C79.47644299 441.13916406 68.65504132 441.13818504 57.83363247 441.13529195 C49.04314047 441.13303861 40.25265041 441.13272509 31.4621582 441.13381577 C30.21366986 441.133969 28.96518151 441.13412223 27.67886019 441.13428011 C25.14301745 441.13459982 22.60717471 441.13492403 20.07133198 441.1352527 C-3.0585863 441.13802652 -26.18850094 441.13514418 -49.31841838 441.1299101 C-70.45186428 441.12516418 -91.58530415 441.1255888 -112.71875 441.13037109 C-136.43975139 441.13572093 -160.16074986 441.13783331 -183.88175201 441.13475883 C-186.40855408 441.13444026 -188.93535614 441.13412589 -191.4621582 441.13381577 C-192.70557212 441.13366149 -193.94898604 441.13350721 -195.23007917 441.13334826 C-204.01561024 441.13248284 -212.80113918 441.13394652 -221.58666992 441.13629532 C-232.2852553 441.13909255 -242.98383334 441.1383567 -253.68241787 441.13301457 C-259.14672182 441.13037651 -264.61101351 441.12937426 -270.07531738 441.13266373 C-275.06901301 441.13562455 -280.06268491 441.13403749 -285.05637836 441.12868617 C-286.87129346 441.12756107 -288.68621053 441.12815522 -290.50112438 441.13056196 C-292.95142177 441.1335642 -295.40163582 441.1305233 -297.85192871 441.12584114 C-298.5709713 441.12818231 -299.29001389 441.13052347 -300.03084564 441.13293558 C-304.88584966 441.11415034 -304.88584966 441.11415034 -306 440 C-306.10438522 438.14553343 -306.13854827 436.28707746 -306.14526367 434.4296875 C-306.15483345 432.64147583 -306.15483345 432.64147583 -306.16459656 430.81713867 C-306.16570938 429.51623291 -306.1668222 428.21532715 -306.16796875 426.875 C-306.17118211 425.53035445 -306.17454624 424.18570926 -306.17805481 422.84106445 C-306.18405698 420.01301261 -306.18589392 417.18499136 -306.18530273 414.35693359 C-306.18520177 410.75374249 -306.19877995 407.15075139 -306.21607494 403.54760742 C-306.22726953 400.76441573 -306.22921957 397.98127097 -306.22869301 395.19805908 C-306.23043106 393.23016903 -306.24123661 391.26229363 -306.25224304 389.29443359 C-306.2166633 375.21627092 -303.30276653 364.32467727 -293.5 353.8125 C-271.45746591 333.0220082 -236.40417396 327.98371949 -207.86010742 322.28393555 C-193.49975705 319.37422212 -181.12753088 315.59368082 -169 307 C-167.948125 306.2575 -166.89625 305.515 -165.8125 304.75 C-158.61400035 297.711467 -152.19715163 289.26501287 -151.5625 278.9375 C-152.00143658 268.20184287 -156.33409348 257.80726948 -160.22753906 247.92822266 C-162.11059718 242.9730671 -163.50572243 238.06799906 -164.65625 232.890625 C-164.93428467 231.66827148 -165.21231934 230.44591797 -165.4987793 229.18652344 C-166.03314911 226.76558611 -166.53069851 224.33616937 -166.98754883 221.89941406 C-167.71451082 218.63789612 -168.38910253 215.93024948 -170 213 C-173.24477963 211.0851978 -176.32362427 210.58910962 -180 210 C-185.55063442 207.17231831 -188.39472209 203.53840743 -191 198 C-192.29637365 193.51121084 -193.07801421 188.98555249 -193.8125 184.375 C-194.02189209 183.09915039 -194.23128418 181.82330078 -194.44702148 180.50878906 C-195.66279271 172.58969963 -196.48631785 164.76380327 -196.5625 156.75 C-196.57708252 155.88938965 -196.59166504 155.0287793 -196.60668945 154.14208984 C-196.51120513 148.28687565 -195.35457487 142.90400323 -192 138 C-189.86157227 136.74902344 -189.86157227 136.74902344 -188 136 C-188.14099121 135.37657715 -188.28198242 134.7531543 -188.42724609 134.11083984 C-189.08211647 131.20012605 -189.72856306 128.28759791 -190.375 125.375 C-190.59671875 124.3953125 -190.8184375 123.415625 -191.046875 122.40625 C-193.91293475 109.42468523 -195.34563528 96.86300228 -195.3125 83.5625 C-195.32861328 82.27279297 -195.34472656 80.98308594 -195.36132812 79.65429688 C-195.37542007 51.51268065 -184.90613303 25.78723442 -165.6015625 5.4765625 C-120.08163388 -37.62370214 -48.7318059 -36.63130022 0 0 Z M-168.61230469 16.40087891 C-171.97784258 20.27918172 -174.55759354 24.50184773 -177 29 C-177.51949219 29.92039063 -178.03898437 30.84078125 -178.57421875 31.7890625 C-194.50787039 61.56933836 -192.22966761 96.5162792 -184.5859375 128.40625 C-183.81012714 131.84050386 -183.37180417 134.51002319 -184 138 C-185.39892508 139.95266626 -186.88367701 141.63418597 -188.58984375 143.32421875 C-193.55270031 149.22190702 -191.56752766 161.77537291 -191 169 C-189.11715103 188.71091704 -189.11715103 188.71091704 -179.140625 204.66796875 C-176.02840096 206.60458992 -172.82115591 207.2528753 -169.234375 207.87109375 C-165.87082802 209.57050822 -165.2035846 212.61439575 -164 216 C-163.33874112 218.45600932 -162.72865773 220.92623442 -162.1640625 223.40625 C-160.12539243 231.98022498 -157.32751835 240.20464219 -154.375 248.5 C-143.65103306 278.81420575 -143.65103306 278.81420575 -149.9375 292.1875 C-158.18756228 307.68032475 -171.86528436 316.93149107 -188 323 C-193.05123693 324.5380131 -198.22189804 325.54862544 -203.40216064 326.54641724 C-207.46673373 327.33165848 -211.51729 328.18487171 -215.5703125 329.02734375 C-216.37677216 329.19330551 -217.18323181 329.35926727 -218.01412964 329.53025818 C-260.01513764 337.75156295 -260.01513764 337.75156295 -294 362 C-308.3094299 384.30747628 -301 408.58349294 -301 436 C-155.14 436 -9.28 436 141 436 C144.95472789 389.53639984 144.95472789 389.53639984 127.5 352.875 C119.92884421 345.68881824 110.05816855 342.14959009 100.265625 339.078125 C99.03428078 338.69136093 99.03428078 338.69136093 97.77806091 338.29678345 C88.64901571 335.49495316 79.38777278 333.40439969 70.0625 331.375 C68.39111492 331.00332796 66.71989059 330.63093234 65.04882812 330.2578125 C58.22023464 328.74235389 51.38795618 327.26171345 44.52319336 325.91821289 C43.17535011 325.6541716 43.17535011 325.6541716 41.80027771 325.38479614 C40.09025537 325.05255962 38.37933201 324.72491346 36.66737366 324.40280151 C20.05044484 321.1893009 4.27132686 311.92592212 -5.75 298.125 C-6.85771301 296.43237311 -7.94157226 294.72387488 -9 293 C-9.52078125 292.17242187 -10.0415625 291.34484375 -10.578125 290.4921875 C-11.04734375 289.66976563 -11.5165625 288.84734375 -12 288 C-12.4125 287.278125 -12.825 286.55625 -13.25 285.8125 C-15.14198965 278.71753883 -12.72805619 270.99088815 -10.6875 264.125 C-10.43967773 263.27147949 -10.19185547 262.41795898 -9.93652344 261.53857422 C-6.62491138 250.38718853 -2.86184016 239.37157607 0.8605957 228.35205078 C1.11788956 227.58948975 1.37518341 226.82692871 1.64027405 226.04125977 C2.12425454 224.60873655 2.6097671 223.1767296 3.09715271 221.74536133 C4.17857516 218.54809948 5.1739543 215.36211569 6.01586914 212.09545898 C7 209 7 209 9.35546875 207.65234375 C10.75732422 207.29849609 10.75732422 207.29849609 12.1875 206.9375 C17.46176502 205.31784381 21.48677026 203.35312723 25 199 C27.81406567 192.91040243 28.26668477 186.33618863 29.125 179.75 C29.21371368 179.07792511 29.30242737 178.40585022 29.39382935 177.71340942 C32.83141211 159.15143063 32.83141211 159.15143063 28 142 C27.278125 141.4225 26.55625 140.845 25.8125 140.25 C23.04114833 136.80970138 23.66667135 133.21134135 24 129 C24.65724465 124.71516979 25.53141703 120.48837157 26.4375 116.25 C26.78264648 114.58517578 26.78264648 114.58517578 27.13476562 112.88671875 C27.56165684 110.83021674 27.9921236 108.774451 28.42749023 106.71972656 C28.61641846 105.8222168 28.80534668 104.92470703 29 104 C29.2791626 102.80093018 29.2791626 102.80093018 29.56396484 101.57763672 C30.43333219 96.43834197 30.18590862 91.18333858 30.18530273 85.98242188 C30.18747171 83.90213002 30.20560425 81.82238452 30.22460938 79.7421875 C30.27482062 68.45621764 28.92749108 58.43607167 24.9375 47.875 C24.63440918 47.06804687 24.33131836 46.26109375 24.01904297 45.4296875 C13.65069817 18.65917546 -3.08055622 0.12821036 -29.62109375 -11.625 C-78.05482074 -31.33444728 -132.60907665 -22.81568906 -168.61230469 16.40087891 Z " fill="#131313" transform="translate(340,53)"/>
<path d="M0 0 C0.01458252 0.58676514 0.02916504 1.17353027 0.04418945 1.77807617 C0.50478581 18.543458 1.75103785 35.03215239 5.6875 51.375 C7.7349392 59.91700442 7.7349392 59.91700442 7 64 C5.60107492 65.95266626 4.11632299 67.63418597 2.41015625 69.32421875 C-2.55270031 75.22190702 -0.56752766 87.77537291 0 95 C1.70707353 114.20928868 1.70707353 114.20928868 11.08203125 129.8828125 C14.10078667 131.64119142 17.33091159 132.32105066 20.73046875 133.03125 C23.94326262 134.40263189 24.54774998 135.83259263 26 139 C26.98136797 141.94676551 27.77129674 144.93488936 28.5625 147.9375 C31.4947168 158.66217011 34.98629262 169.17440268 38.57250977 179.69311523 C47.19268801 205.10445538 47.19268801 205.10445538 41.125 218.125 C32.71961236 233.97097154 18.48929136 243.79329461 2 250 C-3.05109184 251.53842428 -8.22192708 252.54863103 -13.40216064 253.54641724 C-17.46673373 254.33165848 -21.51729 255.18487171 -25.5703125 256.02734375 C-26.37677216 256.19330551 -27.18323181 256.35926727 -28.01412964 256.53025818 C-69.26380429 264.6337864 -69.26380429 264.6337864 -103 288 C-107.68749717 295.39501028 -110.06974681 302.06511595 -110.20532227 310.80004883 C-110.22526749 311.94085403 -110.24521271 313.08165924 -110.26576233 314.2570343 C-110.29083107 316.08853279 -110.29083107 316.08853279 -110.31640625 317.95703125 C-110.33718735 319.21513107 -110.35796844 320.4732309 -110.37937927 321.76945496 C-110.43360465 325.10172286 -110.48387945 328.43400239 -110.53222656 331.76635742 C-110.58261084 335.17176555 -110.63820823 338.5770882 -110.69335938 341.98242188 C-110.80036699 348.65487967 -110.90216524 355.32740174 -111 362 C-110.2520859 361.99848112 -109.5041718 361.99696224 -108.73359364 361.99539733 C-64.44264065 361.90595715 -20.15169745 361.8372903 24.13932769 361.79573868 C29.4529927 361.79073563 34.76665753 361.78555837 40.08032227 361.78027344 C41.66715831 361.77869957 41.66715831 361.77869957 43.28605165 361.77709392 C60.43328151 361.75967105 77.58045793 361.72812303 94.72765604 361.69138882 C112.31179016 361.65403169 129.89589621 361.63177524 147.48006839 361.62364602 C158.33745698 361.61814738 169.19469454 361.60075746 180.05203667 361.56833413 C187.48924202 361.54725074 194.92636887 361.54078589 202.36360196 361.54599449 C206.65966761 361.54856593 210.95546868 361.54452207 215.25148773 361.5231781 C219.1802339 361.50380056 223.10853606 361.50267206 227.0373021 361.51640442 C228.46265776 361.51810314 229.88804045 361.51295428 231.31334243 361.50046727 C233.24293319 361.48453778 235.17269066 361.49540622 237.10230732 361.50780869 C238.71365054 361.50553036 238.71365054 361.50553036 240.35754615 361.50320601 C243 362 243 362 246 366 C126.54 366 7.08 366 -116 366 C-116 293.21710526 -116 293.21710526 -103.5 279.8125 C-81.45746591 259.0220082 -46.40417396 253.98371949 -17.86010742 248.28393555 C-3.49975705 245.37422212 8.87246912 241.59368082 21 233 C22.051875 232.2575 23.10375 231.515 24.1875 230.75 C31.38599965 223.711467 37.80284837 215.26501287 38.4375 204.9375 C37.99856342 194.20184287 33.66590652 183.80726948 29.77246094 173.92822266 C27.88940282 168.9730671 26.49427757 164.06799906 25.34375 158.890625 C25.06571533 157.66827148 24.78768066 156.44591797 24.5012207 155.18652344 C23.96685089 152.76558611 23.46930149 150.33616937 23.01245117 147.89941406 C22.28548918 144.63789612 21.61089747 141.93024948 20 139 C16.75522037 137.0851978 13.67637573 136.58910962 10 136 C4.44936558 133.17231831 1.60527791 129.53840743 -1 124 C-2.29637365 119.51121084 -3.07801421 114.98555249 -3.8125 110.375 C-4.02189209 109.09915039 -4.23128418 107.82330078 -4.44702148 106.50878906 C-5.66279271 98.58969963 -6.48631785 90.76380327 -6.5625 82.75 C-6.57708252 81.88938965 -6.59166504 81.0287793 -6.60668945 80.14208984 C-6.51120513 74.28687565 -5.35457487 68.90400323 -2 64 C0.13842773 62.74902344 0.13842773 62.74902344 2 62 C1.85900879 61.37657715 1.71801758 60.7531543 1.57275391 60.11083984 C-1.89895289 44.68008411 -5.09881075 29.74308273 -5.375 13.875 C-5.40118408 12.96089355 -5.42736816 12.04678711 -5.4543457 11.10498047 C-5.47068591 4.6282063 -5.47068591 4.6282063 -3.0390625 1.3828125 C-1 0 -1 0 0 0 Z " fill="#111111" transform="translate(150,127)"/>
<path d="M0 0 C-0.33 20.79 -0.66 41.58 -1 63 C3.42827713 62.99111755 7.85655426 62.98223511 12.41902161 62.9730835 C52.99243975 62.89354982 93.56584869 62.83380269 134.13932769 62.79573868 C139.4529927 62.79073563 144.76665753 62.78555837 150.08032227 62.78027344 C151.66715831 62.77869957 151.66715831 62.77869957 153.28605165 62.77709392 C170.43328151 62.75967105 187.58045793 62.72812303 204.72765604 62.69138882 C222.31179016 62.65403169 239.89589621 62.63177524 257.48006839 62.62364602 C268.33745698 62.61814738 279.19469454 62.60075746 290.05203667 62.56833413 C297.48924202 62.54725074 304.92636887 62.54078589 312.36360196 62.54599449 C316.65966761 62.54856593 320.95546868 62.54452207 325.25148773 62.5231781 C329.1802339 62.50380056 333.10853606 62.50267206 337.0373021 62.51640442 C338.46265776 62.51810314 339.88804045 62.51295428 341.31334243 62.50046727 C343.24293319 62.48453778 345.17269066 62.49540622 347.10230732 62.50780869 C348.71365054 62.50553036 348.71365054 62.50553036 350.35754615 62.50320601 C353 63 353 63 356 67 C236.54 67 117.08 67 -6 67 C-6 6 -6 6 -3 1 C-1 0 -1 0 0 0 Z " fill="#030303" transform="translate(40,426)"/>
<path d="M0 0 C1.08466553 -0.00451172 2.16933105 -0.00902344 3.28686523 -0.01367188 C4.49358887 -0.02205078 5.7003125 -0.03042969 6.94360352 -0.0390625 C8.23121582 -0.02037109 9.51882813 -0.00167969 10.84545898 0.01757812 C12.16143066 0.03111328 13.47740234 0.04464844 14.83325195 0.05859375 C41.04354163 0.61208299 68.52250996 10.91421515 88.28295898 28.51757812 C89.01643555 29.15824219 89.74991211 29.79890625 90.50561523 30.45898438 C97.13738397 36.63574325 101.65003128 43.81463808 106.28295898 51.51757812 C106.85530273 52.42636719 107.42764648 53.33515625 108.01733398 54.27148438 C109.52224037 56.94222873 109.77238248 58.49946657 109.28295898 61.51757812 C108.29295898 62.17757812 107.30295898 62.83757812 106.28295898 63.51757812 C105.65389648 62.40640625 105.02483398 61.29523438 104.37670898 60.15039062 C88.87730768 33.07745328 68.42766009 18.26826099 38.28295898 9.51757812 C27.11023721 6.73593975 16.25474535 5.41425068 4.78295898 4.95507812 C3.76975586 4.91189453 2.75655273 4.86871094 1.71264648 4.82421875 C-0.76380892 4.71908621 -3.2403485 4.61693976 -5.71704102 4.51757812 C-4.06624143 1.63091837 -3.33682748 0.6356433 0 0 Z " fill="#0E0E0E" transform="translate(253.717041015625,26.482421875)"/>
<path d="M0 0 C7.59 0 15.18 0 23 0 C23 6.6 23 13.2 23 20 C21.68 20.33 20.36 20.66 19 21 C19 19.35 19 17.7 19 16 C18.01 15.67 17.02 15.34 16 15 C15.67 14.34 15.34 13.68 15 13 C14.01 14.485 14.01 14.485 13 16 C11.0625 15.625 11.0625 15.625 9 15 C8.67 14.34 8.34 13.68 8 13 C7.01 14.485 7.01 14.485 6 16 C5.34 16 4.68 16 4 16 C4.185625 14.7625 4.37125 13.525 4.5625 12.25 C4.94711223 9.23720423 5.0874594 6.89989173 4 4 C4.66 4 5.32 4 6 4 C6.66 4.66 7.32 5.32 8 6 C8.66 5.01 9.32 4.02 10 3 C10.61875 3.33 11.2375 3.66 11.875 4 C14.90263216 5.42476807 15.76490445 5.07836518 19 4 C19 3.01 19 2.02 19 1 C13.72 1 8.44 1 3 1 C3 7.27 3 13.54 3 20 C2.01 20.33 1.02 20.66 0 21 C0 14.07 0 7.14 0 0 Z " fill="#D2D2D2" transform="translate(287,251)"/>
<path d="M0 0 C-0.33 0.99 -0.66 1.98 -1 3 C-2.65 3 -4.3 3 -6 3 C-6 4.98 -6 6.96 -6 9 C-2.7 9 0.6 9 4 9 C4 9.66 4 10.32 4 11 C0.7 11 -2.6 11 -6 11 C-6 14.3 -6 17.6 -6 21 C-7.32 21.33 -8.64 21.66 -10 22 C-10 18.37 -10 14.74 -10 11 C-13.3 11 -16.6 11 -20 11 C-20 10.34 -20 9.68 -20 9 C-16.7 9 -13.4 9 -10 9 C-10 7.35 -10 5.7 -10 4 C-12.64 4 -15.28 4 -18 4 C-18 3.34 -18 2.68 -18 2 C-15.56421213 1.46969932 -13.12694025 0.95047688 -10.6875 0.4375 C-9.65206055 0.21030273 -9.65206055 0.21030273 -8.59570312 -0.02148438 C-5.24455934 -0.71761569 -3.30465928 -1.10155309 0 0 Z " fill="#D1D1D1" transform="translate(256,250)"/>
<path d="M0 0 C1.62722229 2.44083344 2.62042094 4.33385393 3.65625 7.01953125 C3.95660156 7.79490234 4.25695312 8.57027344 4.56640625 9.36914062 C5.02853516 10.57860352 5.02853516 10.57860352 5.5 11.8125 C5.80808594 12.60720703 6.11617188 13.40191406 6.43359375 14.22070312 C11.29380329 26.83013088 11.29380329 26.83013088 11 33 C9.68 32.34 8.36 31.68 7 31 C7 32.65 7 34.3 7 36 C6.67 36 6.34 36 6 36 C5.93683594 35.43796875 5.87367188 34.8759375 5.80859375 34.296875 C4.66322758 26.43604611 2.08908218 19.33068419 -0.87524414 11.99511719 C-3.27948984 5.66641122 -3.27948984 5.66641122 -1.69921875 1.8984375 C-0.85810547 0.95871094 -0.85810547 0.95871094 0 0 Z " fill="#151515" transform="translate(363,85)"/>
<path d="M0 0 C0 0.66 0 1.32 0 2 C3.3 2 6.6 2 10 2 C10 2.66 10 3.32 10 4 C9.21753906 4.04898437 8.43507813 4.09796875 7.62890625 4.1484375 C6.61699219 4.22320312 5.60507812 4.29796875 4.5625 4.375 C3.55316406 4.44460938 2.54382813 4.51421875 1.50390625 4.5859375 C0.26447266 4.79089844 0.26447266 4.79089844 -1 5 C-1.33 5.66 -1.66 6.32 -2 7 C-1.01 7 -0.02 7 1 7 C1 6.34 1 5.68 1 5 C2.32 5 3.64 5 5 5 C5 5.66 5 6.32 5 7 C6.65 7 8.3 7 10 7 C10 7.66 10 8.32 10 9 C8.35 9 6.7 9 5 9 C5 9.66 5 10.32 5 11 C6.98 11 8.96 11 11 11 C11 11.66 11 12.32 11 13 C9.02 13 7.04 13 5 13 C4.67 14.65 4.34 16.3 4 18 C3.01 18 2.02 18 1 18 C1 16.35 1 14.7 1 13 C-1.31 13 -3.62 13 -6 13 C-6 12.34 -6 11.68 -6 11 C-3.69 11 -1.38 11 1 11 C1 10.34 1 9.68 1 9 C-1.31 9 -3.62 9 -6 9 C-6.1875 5.625 -6.1875 5.625 -6 2 C-3 0 -3 0 0 0 Z " fill="#D3D3D3" transform="translate(273,254)"/>
<path d="M0 0 C7.59 0 15.18 0 23 0 C23 6.6 23 13.2 23 20 C22.01 20 21.02 20 20 20 C20 13.73 20 7.46 20 1 C14.39 1 8.78 1 3 1 C3 7.27 3 13.54 3 20 C2.01 20.33 1.02 20.66 0 21 C0 14.07 0 7.14 0 0 Z " fill="#CCCCCC" transform="translate(287,251)"/>
<path d="M0 0 C-0.1875 1.8125 -0.1875 1.8125 -1 4 C-1.845625 4.474375 -2.69125 4.94875 -3.5625 5.4375 C-4.7690625 6.2109375 -4.7690625 6.2109375 -6 7 C-6.66685938 9.54327108 -6.66685938 9.54327108 -6 12 C-2.5647952 14.29013653 -1.014669 14.17842973 3 14 C3.33 15.32 3.66 16.64 4 18 C0.43528609 19.18823797 -2.2558336 19.26274852 -6 19 C-9.1850357 17.23984869 -9.83296972 16.50109084 -11 13 C-11.57368942 5.77151335 -11.57368942 5.77151335 -9.1875 2.5625 C-5.93690372 0.24064552 -4.03200043 0 0 0 Z " fill="#CFCFCF" transform="translate(229,251)"/>
<path d="M0 0 C-0.08088175 3.10523354 -0.1937189 6.20850333 -0.3125 9.3125 C-0.33505859 10.19357422 -0.35761719 11.07464844 -0.38085938 11.98242188 C-0.41630859 12.82998047 -0.45175781 13.67753906 -0.48828125 14.55078125 C-0.51446533 15.33106689 -0.54064941 16.11135254 -0.56762695 16.9152832 C-1.10473677 19.50499563 -1.88659032 20.4401098 -4 22 C-4.99 22 -5.98 22 -7 22 C-7.08132187 19.43685501 -7.14064175 16.87631582 -7.1875 14.3125 C-7.21263672 13.59126953 -7.23777344 12.87003906 -7.26367188 12.12695312 C-7.32652697 7.53853126 -6.86703752 4.63065526 -4 1 C-2 0 -2 0 0 0 Z " fill="#CFCFCF" transform="translate(217,250)"/>
<path d="M0 0 C3.63 0.66 7.26 1.32 11 2 C11 2.66 11 3.32 11 4 C5.06 4 -0.88 4 -7 4 C-6.9071875 7.279375 -6.9071875 7.279375 -6.8125 10.625 C-6.66003766 16.01200281 -7.2623713 19.32950485 -10 24 C-10.66 24 -11.32 24 -12 24 C-11.34 16.74 -10.68 9.48 -10 2 C-6.7 2 -3.4 2 0 2 C0 1.34 0 0.68 0 0 Z " fill="#CECECE" transform="translate(272,248)"/>
<path d="M0 0 C2.45840605 -0.02691685 4.91651882 -0.04679802 7.375 -0.0625 C8.07367188 -0.07087891 8.77234375 -0.07925781 9.4921875 -0.08789062 C14.7734375 -0.11328125 14.7734375 -0.11328125 17 1 C17 1.66 17 2.32 17 3 C16.34 3 15.68 3 15 3 C14.7525 3.61875 14.505 4.2375 14.25 4.875 C12.79371361 7.35068687 11.62187494 7.95125002 9 9 C8.67 8.67 8.34 8.34 8 8 C7.05125 7.71125 6.1025 7.4225 5.125 7.125 C2.18957915 6.06824849 0.9289729 5.35763355 -1 3 C-0.67 2.01 -0.34 1.02 0 0 Z " fill="#FAFAFA" transform="translate(452,0)"/>
<path d="M0 0 C2.45840605 -0.02691685 4.91651882 -0.04679802 7.375 -0.0625 C8.07367188 -0.07087891 8.77234375 -0.07925781 9.4921875 -0.08789062 C14.7734375 -0.11328125 14.7734375 -0.11328125 17 1 C17 1.66 17 2.32 17 3 C16.34 3 15.68 3 15 3 C14.7525 3.61875 14.505 4.2375 14.25 4.875 C12.79371361 7.35068687 11.62187494 7.95125002 9 9 C8.67 8.67 8.34 8.34 8 8 C7.05125 7.71125 6.1025 7.4225 5.125 7.125 C2.18957915 6.06824849 0.9289729 5.35763355 -1 3 C-0.67 2.01 -0.34 1.02 0 0 Z " fill="#FAFAFA" transform="translate(268,0)"/>
<path d="M0 0 C2.45840605 -0.02691685 4.91651882 -0.04679802 7.375 -0.0625 C8.07367188 -0.07087891 8.77234375 -0.07925781 9.4921875 -0.08789062 C14.7734375 -0.11328125 14.7734375 -0.11328125 17 1 C17 1.66 17 2.32 17 3 C16.34 3 15.68 3 15 3 C14.7525 3.61875 14.505 4.2375 14.25 4.875 C12.79371361 7.35068687 11.62187494 7.95125002 9 9 C8.67 8.67 8.34 8.34 8 8 C7.05125 7.71125 6.1025 7.4225 5.125 7.125 C2.18957915 6.06824849 0.9289729 5.35763355 -1 3 C-0.67 2.01 -0.34 1.02 0 0 Z " fill="#FAFAFA" transform="translate(84,0)"/>
<path d="M0 0 C0.33 0 0.66 0 1 0 C1 2.64 1 5.28 1 8 C2.65 7.34 4.3 6.68 6 6 C5.67 7.32 5.34 8.64 5 10 C3.68 10.33 2.36 10.66 1 11 C1 12.98 1 14.96 1 17 C-5.17761989 13.4937833 -5.17761989 13.4937833 -7 11 C-7.1875 8.3125 -7.1875 8.3125 -7 6 C-6.34 6 -5.68 6 -5 6 C-4.34 4.68 -3.68 3.36 -3 2 C-2.34 2 -1.68 2 -1 2 C-0.67 1.34 -0.34 0.68 0 0 Z " fill="#ECECEC" transform="translate(368,455)"/>
<path d="M0 0 C0.33 0 0.66 0 1 0 C1 2.64 1 5.28 1 8 C2.65 7.34 4.3 6.68 6 6 C5.67 7.32 5.34 8.64 5 10 C3.68 10.33 2.36 10.66 1 11 C1 12.98 1 14.96 1 17 C-5.17761989 13.4937833 -5.17761989 13.4937833 -7 11 C-7.1875 8.3125 -7.1875 8.3125 -7 6 C-6.34 6 -5.68 6 -5 6 C-4.34 4.68 -3.68 3.36 -3 2 C-2.34 2 -1.68 2 -1 2 C-0.67 1.34 -0.34 0.68 0 0 Z " fill="#ECECEC" transform="translate(184,455)"/>
<path d="M0 0 C0.33 0 0.66 0 1 0 C1 2.97 1 5.94 1 9 C2.65 8.67 4.3 8.34 6 8 C5.34 9.32 4.68 10.64 4 12 C3.01 12 2.02 12 1 12 C1 13.65 1 15.3 1 17 C-2.79133356 16.45838092 -4.66109564 15.00716275 -7 12 C-7.25 9.25 -7.25 9.25 -7 7 C-6.34 7 -5.68 7 -5 7 C-4.34 5.68 -3.68 4.36 -3 3 C-2.34 3 -1.68 3 -1 3 C-0.67 2.01 -0.34 1.02 0 0 Z " fill="#ECECEC" transform="translate(368,269)"/>
<path d="M0 0 C0.33 0 0.66 0 1 0 C1 2.64 1 5.28 1 8 C2.65 7.34 4.3 6.68 6 6 C5.67 7.32 5.34 8.64 5 10 C3.68 10.33 2.36 10.66 1 11 C1 12.65 1 14.3 1 16 C-2.79133356 15.45838092 -4.66109564 14.00716275 -7 11 C-7.25 8.25 -7.25 8.25 -7 6 C-6.34 6 -5.68 6 -5 6 C-4.34 5.01 -3.68 4.02 -3 3 C-2.34 3 -1.68 3 -1 3 C-0.67 2.01 -0.34 1.02 0 0 Z " fill="#E9E9E9" transform="translate(184,85)"/>
<path d="M0 0 C5.28 0 10.56 0 16 0 C16 0.99 16 1.98 16 3 C13.5 4.6875 13.5 4.6875 11 6 C9.68 4.68 8.36 3.36 7 2 C6.34 3.32 5.68 4.64 5 6 C4.34 5.67 3.68 5.34 3 5 C3 4.34 3 3.68 3 3 C2.34 3 1.68 3 1 3 C1.33773438 3.56203125 1.67546875 4.1240625 2.0234375 4.703125 C3.1689058 7.39726644 3.0470026 8.88038233 2.625 11.75 C2.51414062 12.54921875 2.40328125 13.3484375 2.2890625 14.171875 C2.19367188 14.77515625 2.09828125 15.3784375 2 16 C1.34 16 0.68 16 0 16 C0 10.72 0 5.44 0 0 Z " fill="#F8F8F8" transform="translate(290,252)"/>
<path d="M0 0 C0.33 0 0.66 0 1 0 C1 2.97 1 5.94 1 9 C2.65 8.67 4.3 8.34 6 8 C5.34 9.32 4.68 10.64 4 12 C3.01 12 2.02 12 1 12 C1 13.98 1 15.96 1 18 C-0.32 18 -1.64 18 -3 18 C-5.25740552 10.02962206 -5.25740552 10.02962206 -4.25 6 C-3 4 -3 4 -1 3 C-0.67 2.01 -0.34 1.02 0 0 Z " fill="#E6E6E6" transform="translate(184,269)"/>
<path d="M0 0 C2.86773539 1.2500385 4.46271484 2.64887369 6.4375 5.0625 C6.4375 5.7225 6.4375 6.3825 6.4375 7.0625 C4.18528616 8.42991555 2.91192242 9.10316478 0.25 8.875 C-0.348125 8.606875 -0.94625 8.33875 -1.5625 8.0625 C-1.8925 7.0725 -2.2225 6.0825 -2.5625 5.0625 C-3.2225 6.3825 -3.8825 7.7025 -4.5625 9.0625 C-4.5625 8.4025 -4.5625 7.7425 -4.5625 7.0625 C-5.2225 7.0625 -5.8825 7.0625 -6.5625 7.0625 C-6.5625 7.7225 -6.5625 8.3825 -6.5625 9.0625 C-7.2225 9.0625 -7.8825 9.0625 -8.5625 9.0625 C-8.21907251 5.97165263 -7.30294345 4.73805431 -5.3125 2.25 C-2.5625 0.0625 -2.5625 0.0625 0 0 Z " fill="#EDEDED" transform="translate(460.5625,360.9375)"/>
<path d="M0 0 C2.86773539 1.2500385 4.46271484 2.64887369 6.4375 5.0625 C6.4375 5.7225 6.4375 6.3825 6.4375 7.0625 C4.18528616 8.42991555 2.91192242 9.10316478 0.25 8.875 C-0.348125 8.606875 -0.94625 8.33875 -1.5625 8.0625 C-1.8925 7.0725 -2.2225 6.0825 -2.5625 5.0625 C-3.2225 6.3825 -3.8825 7.7025 -4.5625 9.0625 C-4.5625 8.4025 -4.5625 7.7425 -4.5625 7.0625 C-5.2225 7.0625 -5.8825 7.0625 -6.5625 7.0625 C-6.5625 7.7225 -6.5625 8.3825 -6.5625 9.0625 C-7.2225 9.0625 -7.8825 9.0625 -8.5625 9.0625 C-8.21907251 5.97165263 -7.30294345 4.73805431 -5.3125 2.25 C-2.5625 0.0625 -2.5625 0.0625 0 0 Z " fill="#EDEDED" transform="translate(276.5625,360.9375)"/>
<path d="M0 0 C2.86773539 1.2500385 4.46271484 2.64887369 6.4375 5.0625 C6.4375 5.7225 6.4375 6.3825 6.4375 7.0625 C4.18528616 8.42991555 2.91192242 9.10316478 0.25 8.875 C-0.348125 8.606875 -0.94625 8.33875 -1.5625 8.0625 C-1.8925 7.0725 -2.2225 6.0825 -2.5625 5.0625 C-3.2225 6.3825 -3.8825 7.7025 -4.5625 9.0625 C-4.5625 8.4025 -4.5625 7.7425 -4.5625 7.0625 C-5.2225 7.0625 -5.8825 7.0625 -6.5625 7.0625 C-6.5625 7.7225 -6.5625 8.3825 -6.5625 9.0625 C-7.2225 9.0625 -7.8825 9.0625 -8.5625 9.0625 C-8.21907251 5.97165263 -7.30294345 4.73805431 -5.3125 2.25 C-2.5625 0.0625 -2.5625 0.0625 0 0 Z " fill="#EDEDED" transform="translate(92.5625,360.9375)"/>
<path d="M0 0 C2.75712283 1.420336 3.46642448 3.32524084 4.52734375 6.16015625 C5.87762875 10.96007445 5.14948734 14.6276519 3.0625 19.0625 C0.51556766 16.51556766 0.34175236 14.61893043 -0.4375 11.125 C-1.25840174 7.45324929 -1.83172543 5.22116186 -3.9375 2.0625 C-1.9375 0.0625 -1.9375 0.0625 0 0 Z " fill="#0D0D0D" transform="translate(171.9375,260.9375)"/>
<path d="M0 0 C2.375 0.25 2.375 0.25 5 1 C6.0625 2.9375 6.0625 2.9375 7 5 C9.0335948 6.26804566 9.0335948 6.26804566 11 7 C11 7.66 11 8.32 11 9 C10.443125 8.814375 9.88625 8.62875 9.3125 8.4375 C6.600867 7.92448835 4.65628961 8.3359276 2 9 C2 7.02 2 5.04 2 3 C1.01 3.495 1.01 3.495 0 4 C-0.65555119 6.52733235 -0.65555119 6.52733235 -1 9 C-2.66666667 9 -4.33333333 9 -6 9 C-5.75 7.125 -5.75 7.125 -5 5 C-3.68352881 4.30062468 -2.34977849 3.63270867 -1 3 C-0.67 2.01 -0.34 1.02 0 0 Z " fill="#ECECEC" transform="translate(458,176)"/>
<path d="M0 0 C2.375 0.25 2.375 0.25 5 1 C6.0625 2.9375 6.0625 2.9375 7 5 C9.0335948 6.26804566 9.0335948 6.26804566 11 7 C11 7.66 11 8.32 11 9 C10.443125 8.814375 9.88625 8.62875 9.3125 8.4375 C6.600867 7.92448835 4.65628961 8.3359276 2 9 C2 7.02 2 5.04 2 3 C1.01 3.495 1.01 3.495 0 4 C-0.65555119 6.52733235 -0.65555119 6.52733235 -1 9 C-2.66666667 9 -4.33333333 9 -6 9 C-5.75 7.125 -5.75 7.125 -5 5 C-3.68352881 4.30062468 -2.34977849 3.63270867 -1 3 C-0.67 2.01 -0.34 1.02 0 0 Z " fill="#ECECEC" transform="translate(274,176)"/>
<path d="M0 0 C2.375 0.25 2.375 0.25 5 1 C6.0625 2.9375 6.0625 2.9375 7 5 C9.0335948 6.26804566 9.0335948 6.26804566 11 7 C11 7.66 11 8.32 11 9 C10.443125 8.814375 9.88625 8.62875 9.3125 8.4375 C6.600867 7.92448835 4.65628961 8.3359276 2 9 C2 7.02 2 5.04 2 3 C1.01 3.495 1.01 3.495 0 4 C-0.65555119 6.52733235 -0.65555119 6.52733235 -1 9 C-2.66666667 9 -4.33333333 9 -6 9 C-5.75 7.125 -5.75 7.125 -5 5 C-3.68352881 4.30062468 -2.34977849 3.63270867 -1 3 C-0.67 2.01 -0.34 1.02 0 0 Z " fill="#ECECEC" transform="translate(90,176)"/>
<path d="M0 0 C0.33 0.66 0.66 1.32 1 2 C0.27554687 2.04898438 -0.44890625 2.09796875 -1.1953125 2.1484375 C-6.41458867 2.55206152 -11.09813658 3.01275807 -16 5 C-15.7215625 6.175625 -15.7215625 6.175625 -15.4375 7.375 C-15 10 -15 10 -16 12 C-13.69 12 -11.38 12 -9 12 C-9 12.66 -9 13.32 -9 14 C-15.15234375 14.87890625 -15.15234375 14.87890625 -17 15 C-18 14 -18 14 -18.09765625 11.05859375 C-18.06510417 7.70572917 -18.03255208 4.35286458 -18 1 C-12.06 0.67 -6.12 0.34 0 0 Z " fill="#F6F6F6" transform="translate(283,251)"/>
<path d="M0 0 C2.10850329 3.16275494 3.28830876 6.13471538 4.625 9.6875 C5.29402344 11.45673828 5.29402344 11.45673828 5.9765625 13.26171875 C6.31429688 14.16535156 6.65203125 15.06898437 7 16 C5.02 16 3.04 16 1 16 C0.24481781 14.28203573 -0.47829091 12.54994751 -1.1875 10.8125 C-1.79658203 9.36810547 -1.79658203 9.36810547 -2.41796875 7.89453125 C-3 5 -3 5 -1.61328125 2.13671875 C-1.08089844 1.43160156 -0.54851562 0.72648437 0 0 Z " fill="#2B2B2B" transform="translate(363,85)"/>
<path d="M0 0 C0.33 0 0.66 0 1 0 C1 6.27 1 12.54 1 19 C1.66 19.33 2.32 19.66 3 20 C2.01 20 1.02 20 0 20 C-0.50512244 18.39743892 -1.00391627 16.79288208 -1.5 15.1875 C-1.91765625 13.84751953 -1.91765625 13.84751953 -2.34375 12.48046875 C-3 10 -3 10 -3 7 C-3.66 6.67 -4.32 6.34 -5 6 C-3.625 4.5 -3.625 4.5 -2 3 C-1.34 3 -0.68 3 0 3 C0 2.01 0 1.02 0 0 Z " fill="#D7D7D7" transform="translate(306,252)"/>
<path d="M0 0 C3.63 0.66 7.26 1.32 11 2 C11 2.66 11 3.32 11 4 C8.4374282 4.02710123 5.87514635 4.04688771 3.3125 4.0625 C2.2306543 4.07506836 2.2306543 4.07506836 1.12695312 4.08789062 C-2.71555382 4.10543632 -6.26639526 3.93524221 -10 3 C-10 2.67 -10 2.34 -10 2 C-6.7 2 -3.4 2 0 2 C0 1.34 0 0.68 0 0 Z " fill="#D7D7D7" transform="translate(272,248)"/>
<path d="M0 0 C0.99 0.33 1.98 0.66 3 1 C1.125 5.75 1.125 5.75 0 8 C-2.475 7.01 -2.475 7.01 -5 6 C-3.63016497 2.83884224 -3.0109362 2.0072908 0 0 Z " fill="#0D0D0D" transform="translate(168,68)"/>
<path d="M0 0 C1.60080151 4.00200378 0.29279692 7.04556236 -1 11 C-2.32 10.01 -3.64 9.02 -5 8 C-4.45773019 4.20411134 -2.79872437 2.52788007 0 0 Z " fill="#060606" transform="translate(334,311)"/>
<path d="M0 0 C0.33 0 0.66 0 1 0 C1 2.64 1 5.28 1 8 C2.65 7.34 4.3 6.68 6 6 C5.67 7.32 5.34 8.64 5 10 C3.68 10.33 2.36 10.66 1 11 C1 12.98 1 14.96 1 17 C0.67 17 0.34 17 0 17 C0 11.39 0 5.78 0 0 Z " fill="#DEDEDE" transform="translate(368,455)"/>
<path d="M0 0 C0.33 0 0.66 0 1 0 C1 2.64 1 5.28 1 8 C2.65 7.34 4.3 6.68 6 6 C5.67 7.32 5.34 8.64 5 10 C3.68 10.33 2.36 10.66 1 11 C1 12.98 1 14.96 1 17 C0.67 17 0.34 17 0 17 C0 11.39 0 5.78 0 0 Z " fill="#DEDEDE" transform="translate(184,455)"/>
<path d="M0 0 C0.33 0 0.66 0 1 0 C1 2.97 1 5.94 1 9 C2.65 8.67 4.3 8.34 6 8 C5.34 9.32 4.68 10.64 4 12 C3.01 12 2.02 12 1 12 C1 13.65 1 15.3 1 17 C0.67 17 0.34 17 0 17 C0 11.39 0 5.78 0 0 Z " fill="#E4E4E4" transform="translate(368,269)"/>
<path d="M0 0 C0.33 0 0.66 0 1 0 C3.42857143 7.42857143 3.42857143 7.42857143 2 11 C-1.875 9.25 -1.875 9.25 -3 7 C-2.06421005 4.64018187 -1.06652192 2.30368736 0 0 Z " fill="#363636" transform="translate(177,273)"/>
<path d="M0 0 C0.99 0 1.98 0 3 0 C3.33 2.97 3.66 5.94 4 9 C2.68 7.68 1.36 6.36 0 5 C-0.33 5.99 -0.66 6.98 -1 8 C-1.33 8 -1.66 8 -2 8 C-2.125 5.125 -2.125 5.125 -2 2 C-1.34 1.34 -0.68 0.68 0 0 Z " fill="#292929" transform="translate(151,243)"/>
<path d="M0 0 C0.99 0 1.98 0 3 0 C1.55746343 3.36591866 -0.33264727 5.51047079 -3 8 C-3.66 7.67 -4.32 7.34 -5 7 C-5.625 4.9375 -5.625 4.9375 -6 3 C-4.02 2.67 -2.04 2.34 0 2 C0 1.34 0 0.68 0 0 Z " fill="#ECECEC" transform="translate(466,186)"/>
<path d="M0 0 C0.99 0 1.98 0 3 0 C1.55746343 3.36591866 -0.33264727 5.51047079 -3 8 C-3.66 7.67 -4.32 7.34 -5 7 C-5.625 4.9375 -5.625 4.9375 -6 3 C-4.02 2.67 -2.04 2.34 0 2 C0 1.34 0 0.68 0 0 Z " fill="#ECECEC" transform="translate(282,186)"/>
<path d="M0 0 C0.99 0 1.98 0 3 0 C1.55746343 3.36591866 -0.33264727 5.51047079 -3 8 C-3.66 7.67 -4.32 7.34 -5 7 C-5.625 4.9375 -5.625 4.9375 -6 3 C-4.02 2.67 -2.04 2.34 0 2 C0 1.34 0 0.68 0 0 Z " fill="#ECECEC" transform="translate(98,186)"/>
<path d="M0 0 C0.99 0 1.98 0 3 0 C3 0.66 3 1.32 3 2 C2.34 2 1.68 2 1 2 C0.67 2.99 0.34 3.98 0 5 C-0.66 5 -1.32 5 -2 5 C-2.33 5.99 -2.66 6.98 -3 8 C-3.66 8 -4.32 8 -5 8 C-5.33 6.35 -5.66 4.7 -6 3 C-4.02 2.67 -2.04 2.34 0 2 C0 1.34 0 0.68 0 0 Z " fill="#ECECEC" transform="translate(466,371)"/>
<path d="M0 0 C0.99 0 1.98 0 3 0 C3 0.66 3 1.32 3 2 C2.34 2 1.68 2 1 2 C0.67 2.99 0.34 3.98 0 5 C-0.66 5 -1.32 5 -2 5 C-2.33 5.99 -2.66 6.98 -3 8 C-3.66 8 -4.32 8 -5 8 C-5.33 6.35 -5.66 4.7 -6 3 C-4.02 2.67 -2.04 2.34 0 2 C0 1.34 0 0.68 0 0 Z " fill="#ECECEC" transform="translate(282,371)"/>
<path d="M0 0 C0.99 0 1.98 0 3 0 C3 0.66 3 1.32 3 2 C2.34 2 1.68 2 1 2 C0.67 2.99 0.34 3.98 0 5 C-0.66 5 -1.32 5 -2 5 C-2.33 5.99 -2.66 6.98 -3 8 C-3.66 8 -4.32 8 -5 8 C-5.33 6.35 -5.66 4.7 -6 3 C-4.02 2.67 -2.04 2.34 0 2 C0 1.34 0 0.68 0 0 Z " fill="#EBEBEB" transform="translate(98,371)"/>
<path d="M0 0 C0.33 0 0.66 0 1 0 C1 4.62 1 9.24 1 14 C-0.66832577 11.49751135 -1.62381674 9.58850813 -2.625 6.8125 C-2.88539063 6.09707031 -3.14578125 5.38164063 -3.4140625 4.64453125 C-3.60742188 4.10183594 -3.80078125 3.55914062 -4 3 C-3.01 3 -2.02 3 -1 3 C-0.67 2.01 -0.34 1.02 0 0 Z " fill="#DADADA" transform="translate(368,84)"/>
<path d="M0 0 C0.99 0 1.98 0 3 0 C3 0.66 3 1.32 3 2 C2.34 2 1.68 2 1 2 C0.7525 2.61875 0.505 3.2375 0.25 3.875 C-1.20628639 6.35068687 -2.37812506 6.95125002 -5 8 C-5 6.35 -5 4.7 -5 3 C-4.360625 2.87625 -3.72125 2.7525 -3.0625 2.625 C-2.0415625 2.315625 -2.0415625 2.315625 -1 2 C-0.67 1.34 -0.34 0.68 0 0 Z " fill="#EBEBEB" transform="translate(466,1)"/>
<path d="M0 0 C0.99 0 1.98 0 3 0 C3 0.66 3 1.32 3 2 C2.34 2 1.68 2 1 2 C0.7525 2.61875 0.505 3.2375 0.25 3.875 C-1.20628639 6.35068687 -2.37812506 6.95125002 -5 8 C-5 6.35 -5 4.7 -5 3 C-4.360625 2.87625 -3.72125 2.7525 -3.0625 2.625 C-2.0415625 2.315625 -2.0415625 2.315625 -1 2 C-0.67 1.34 -0.34 0.68 0 0 Z " fill="#EBEBEB" transform="translate(282,1)"/>
<path d="M0 0 C0.99 0 1.98 0 3 0 C3 0.66 3 1.32 3 2 C2.34 2 1.68 2 1 2 C0.7525 2.61875 0.505 3.2375 0.25 3.875 C-1.20628639 6.35068687 -2.37812506 6.95125002 -5 8 C-5 6.35 -5 4.7 -5 3 C-4.360625 2.87625 -3.72125 2.7525 -3.0625 2.625 C-2.0415625 2.315625 -2.0415625 2.315625 -1 2 C-0.67 1.34 -0.34 0.68 0 0 Z " fill="#EBEBEB" transform="translate(98,1)"/>
<path d="M0 0 C3 1 3 1 4.25 3.375 C5 6 5 6 4 9 C3.34 8.01 2.68 7.02 2 6 C1.01 6.66 0.02 7.32 -1 8 C-0.67 5.36 -0.34 2.72 0 0 Z " fill="#CFCFCF" transform="translate(300,258)"/>
<path d="M0 0 C0.33 1.32 0.66 2.64 1 4 C0.401875 4.28875 -0.19625 4.5775 -0.8125 4.875 C-3.19327792 6.04742026 -3.19327792 6.04742026 -6 8 C-4.52307692 2.33846154 -4.52307692 2.33846154 -1.875 0.625 C-0.946875 0.315625 -0.946875 0.315625 0 0 Z " fill="#282828" transform="translate(335,308)"/>
<path d="M0 0 C0.66 0 1.32 0 2 0 C2.625 2.875 2.625 2.875 3 6 C2.34 6.66 1.68 7.32 1 8 C-1.125 3.375 -1.125 3.375 0 0 Z " fill="#F9F9F9" transform="translate(297,257)"/>
<path d="M0 0 C-0.33 1.32 -0.66 2.64 -1 4 C-2.65 4.33 -4.3 4.66 -6 5 C-6 4.01 -6 3.02 -6 2 C-2.25 0 -2.25 0 0 0 Z " fill="#EDEDED" transform="translate(6,276)"/>
<path d="M0 0 C0.33 0 0.66 0 1 0 C1 3.3 1 6.6 1 10 C0.01 8.68 -0.98 7.36 -2 6 C-1.1875 2.75 -1.1875 2.75 0 0 Z " fill="#F7F7F7" transform="translate(305,256)"/>
<path d="M0 0 C-0.66 1.32 -1.32 2.64 -2 4 C-3.32 4 -4.64 4 -6 4 C-6 3.01 -6 2.02 -6 1 C-3 0 -3 0 0 0 Z " fill="#ECECEC" transform="translate(6,462)"/>
<path d="M0 0 C-1.38081223 4.1424367 -3.59825558 5.32203099 -7 8 C-7.66 7.67 -8.32 7.34 -9 7 C-7.88121617 5.82737096 -6.75476949 4.66204862 -5.625 3.5 C-4.68527344 2.52546875 -4.68527344 2.52546875 -3.7265625 1.53125 C-2 0 -2 0 0 0 Z " fill="#E6E6E6" transform="translate(56,407)"/>
<path d="M0 0 C0.99 0.66 1.98 1.32 3 2 C1.9024777 4.99324263 1.32317108 5.84610901 -1.625 7.25 C-2.40875 7.4975 -3.1925 7.745 -4 8 C-2.66666667 5.33333333 -1.33333333 2.66666667 0 0 Z " fill="#1A1A1A" transform="translate(66,394)"/>
<path d="M0 0 C-0.66 1.32 -1.32 2.64 -2 4 C-3.32 4 -4.64 4 -6 4 C-6 3.01 -6 2.02 -6 1 C-3 0 -3 0 0 0 Z " fill="#ECECEC" transform="translate(6,92)"/>
<path d="M0 0 C-0.33 1.32 -0.66 2.64 -1 4 C-2.32 4.33 -3.64 4.66 -5 5 C-5 4.01 -5 3.02 -5 2 C-2 0 -2 0 0 0 Z " fill="#EDEDED" transform="translate(374,461)"/>
<path d="M0 0 C-0.33 1.32 -0.66 2.64 -1 4 C-2.32 4.33 -3.64 4.66 -5 5 C-5 4.01 -5 3.02 -5 2 C-2 0 -2 0 0 0 Z " fill="#EDEDED" transform="translate(190,461)"/>
<path d="M0 0 C1.65 0 3.3 0 5 0 C5 0.99 5 1.98 5 3 C4.34 3.66 3.68 4.32 3 5 C0.875 4.625 0.875 4.625 -1 4 C-0.34 4 0.32 4 1 4 C0.67 2.68 0.34 1.36 0 0 Z " fill="#212121" transform="translate(166,260)"/>
<path d="M0 0 C1.98 0.99 3.96 1.98 6 3 C5.67 3.99 5.34 4.98 5 6 C2.5 4.6875 2.5 4.6875 0 3 C0 2.01 0 1.02 0 0 Z " fill="#EAEAEA" transform="translate(320,47)"/>
</svg>
